<svg xmlns="http://www.w3.org/2000/svg" width="1005" height="180" viewBox="0 0 1005 180">
  <g id="Group_1968" data-name="Group 1968" transform="translate(-138 -138)">
    <circle id="Ellipse_11" data-name="Ellipse 11" cx="90" cy="90" r="90" transform="translate(138 138)" fill="#81bdf5"/>
    <path id="Icon_open-magnifying-glass" data-name="Icon open-magnifying-glass" d="M28.178.036a28.178,28.178,0,0,0,0,56.356,27.851,27.851,0,0,0,13.365-3.3,8.051,8.051,0,0,0,1.047,1.047l8.051,8.051A8.212,8.212,0,1,0,62.234,50.6l-8.051-8.051A8.051,8.051,0,0,0,52.894,41.5a27.8,27.8,0,0,0,3.542-13.365A28.209,28.209,0,0,0,28.259-.045Zm0,8.051A20.032,20.032,0,0,1,48.305,28.214a20.188,20.188,0,0,1-5.314,13.848l-.242.242A8.05,8.05,0,0,0,41.7,43.349,20.146,20.146,0,0,1,28.1,48.421a20.127,20.127,0,0,1,0-40.255Z" transform="translate(195.505 195.55)"/>
    <circle id="Ellipse_11-2" data-name="Ellipse 11" cx="90" cy="90" r="90" transform="translate(413 138)" fill="#81bdf5"/>
    <path id="Icon_awesome-lightbulb" data-name="Icon awesome-lightbulb" d="M12.5,59.144a4.167,4.167,0,0,0,.7,2.3l2.225,3.344a4.164,4.164,0,0,0,3.468,1.859h8.033A4.164,4.164,0,0,0,30.4,64.791l2.225-3.344a4.164,4.164,0,0,0,.7-2.3l.005-4.992H12.5l.007,4.992ZM0,22.91A22.783,22.783,0,0,0,5.67,37.982a37.409,37.409,0,0,1,6.8,11.9c.005.034.009.068.014.1H33.34c.005-.034.009-.066.014-.1a37.409,37.409,0,0,1,6.8-11.9A22.906,22.906,0,1,0,0,22.91ZM22.91,12.5A10.426,10.426,0,0,0,12.5,22.91a2.083,2.083,0,1,1-4.166,0A14.6,14.6,0,0,1,22.91,8.331a2.083,2.083,0,1,1,0,4.166Z" transform="translate(480.09 194.675)"/>
    <circle id="Ellipse_11-3" data-name="Ellipse 11" cx="90" cy="90" r="90" transform="translate(688 138)" fill="#81bdf5"/>
    <path id="Icon_awesome-pencil-ruler" data-name="Icon awesome-pencil-ruler" d="M13.752,30.661,30.66,13.755,25.117,8.212l-7.749,7.749a.995.995,0,0,1-1.408,0l-1.408-1.408a1,1,0,0,1,0-1.408L22.3,5.4,18.074,1.168a3.985,3.985,0,0,0-5.636,0L1.167,12.438a3.986,3.986,0,0,0,0,5.636L13.752,30.661ZM62.558,15.986a6.036,6.036,0,0,0,0-8.534L56.873,1.767a6.037,6.037,0,0,0-8.537,0L42.554,7.547,56.776,21.769ZM39.711,10.392,2.4,47.7.04,61.2A2.667,2.667,0,0,0,3.13,64.285l13.5-2.367,37.3-37.305Zm23.447,35.86-4.226-4.226-7.749,7.749a1,1,0,0,1-1.408,0l-1.408-1.408a1,1,0,0,1,0-1.408l7.749-7.749L50.57,33.663,33.662,50.569l12.59,12.589a3.985,3.985,0,0,0,5.636,0l11.271-11.27a3.985,3.985,0,0,0,0-5.636Z" transform="translate(745.837 195.837)"/>
    <circle id="Ellipse_11-4" data-name="Ellipse 11" cx="90" cy="90" r="90" transform="translate(963 138)" fill="#81bdf5"/>
    <path id="Icon_ionic-ios-paper" data-name="Icon ionic-ios-paper" d="M13.384,7.589V50a1.849,1.849,0,0,1-1.844,1.844h0A1.849,1.849,0,0,1,9.7,50V11.8H7.589a4.21,4.21,0,0,0-4.214,4.214v37.93a4.21,4.21,0,0,0,4.214,4.214h46.5a4.072,4.072,0,0,0,4.07-4.07V7.589a4.21,4.21,0,0,0-4.214-4.214l-36.613.263A3.775,3.775,0,0,0,13.384,7.589ZM22.077,11.8H33.14a1.849,1.849,0,0,1,1.844,1.844h0a1.849,1.849,0,0,1-1.844,1.844H22.077a1.849,1.849,0,0,1-1.844-1.844h0A1.849,1.849,0,0,1,22.077,11.8Zm0,21.072H41.569a1.849,1.849,0,0,1,1.844,1.844h0a1.849,1.849,0,0,1-1.844,1.844H22.077a1.849,1.849,0,0,1-1.844-1.844h0A1.849,1.849,0,0,1,22.077,32.876ZM47.891,47.1H22.077a1.849,1.849,0,0,1-1.844-1.844h0a1.849,1.849,0,0,1,1.844-1.844H47.891a1.849,1.849,0,0,1,1.844,1.844h0A1.849,1.849,0,0,1,47.891,47.1Zm0-21.072H22.077a1.849,1.849,0,0,1-1.844-1.844h0a1.849,1.849,0,0,1,1.844-1.844H47.891a1.849,1.849,0,0,1,1.844,1.844h0A1.849,1.849,0,0,1,47.891,26.028Z" transform="translate(1022.231 197.231)"/>
  </g>
</svg>
