<svg xmlns="http://www.w3.org/2000/svg" width="281.832" height="300.771" viewBox="0 0 281.832 300.771">
  <g id="Group_1967" data-name="Group 1967" transform="translate(-859.168 -166.741)">
    <g id="Group_1912" data-name="Group 1912" transform="translate(859.168 185.949)">
      <g id="_4" data-name="4" transform="translate(10.75 0)">
        <path id="Path_156" data-name="Path 156" d="M160.971,67.138V43.282" transform="translate(-105.992 -33.964)" fill="none" stroke="#19141e" stroke-width="7"/>
        <path id="Path_157" data-name="Path 157" d="M148.24,114.43h-9.864v-14.7h9.864a7.351,7.351,0,0,1,0,14.7" transform="translate(-91.114 -71.131)" fill="#19141e" fill-rule="evenodd"/>
        <path id="Path_158" data-name="Path 158" d="M64.662,20.637a5.332,5.332,0,1,1,.437,2.914l-3.72-2.846-5.062,3.873L51.26,20.706,46.2,24.578l-5.058-3.872-5.059,3.872-2.792-2.138a5.333,5.333,0,1,1-.118-2.671L36.083,22l5.059-3.872L46.2,22l5.059-3.872L56.318,22l5.061-3.872Zm3.362,49.526H29.631A5.535,5.535,0,0,1,24.1,64.629V39.267a5.535,5.535,0,0,1,5.535-5.535H68.024a5.535,5.535,0,0,1,5.535,5.535V64.629A5.535,5.535,0,0,1,68.024,70.163Zm-3.579,5.02H33.209a2.51,2.51,0,1,1,0-5.02H64.446a2.51,2.51,0,0,1,0,5.02Z" transform="translate(-14.972 -16)" fill="#6ca1ff" fill-rule="evenodd"/>
        <path id="Path_159" data-name="Path 159" d="M61.233,24.8l-5.059,3.872-2.792-2.117-.132-2.7,2.924,2.237,5.059-3.872,5.058,3.872,5.059-3.872,5.058,3.873,5.061-3.872,3.238,2.58.539,2.863L81.47,24.8l-5.062,3.873L71.35,24.8l-5.059,3.872Z" transform="translate(-35.063 -20.097)" opacity="0.404"/>
        <path id="Path_160" data-name="Path 160" d="M79.794,179.6H48.557a2.51,2.51,0,1,1,0-5.02H79.794a2.51,2.51,0,0,1,0,5.02" transform="translate(-30.32 -120.421)" fill-rule="evenodd" opacity="0.396"/>
        <path id="Path_161" data-name="Path 161" d="M7.351,114.43h9.863v-14.7H7.351a7.351,7.351,0,1,0,0,14.7" transform="translate(0 -71.131)" fill="#19141e" fill-rule="evenodd"/>
        <path id="Path_162" data-name="Path 162" d="M129.617,101.626c0,5.622-3.641,10.179-8.132,10.179s-8.131-4.558-8.131-10.179,3.641-10.179,8.131-10.179,8.132,4.557,8.132,10.179" transform="translate(-74.639 -65.678)" fill="#19141e" fill-rule="evenodd"/>
        <path id="Path_163" data-name="Path 163" d="M125.974,111.8H129.8V91.446h-3.821Z" transform="translate(-82.948 -65.678)" fill="#19141e" fill-rule="evenodd"/>
        <path id="Path_164" data-name="Path 164" d="M118.428,101.626c0,5.622-3.641,10.179-8.132,10.179s-8.131-4.558-8.131-10.179,3.641-10.179,8.131-10.179,8.132,4.557,8.132,10.179" transform="translate(-67.271 -65.678)" fill="#fff" fill-rule="evenodd"/>
        <path id="Path_165" data-name="Path 165" d="M127.125,112.341c0,1.979-1.281,3.583-2.862,3.583s-2.862-1.6-2.862-3.583,1.281-3.583,2.862-3.583,2.862,1.6,2.862,3.583" transform="translate(-79.936 -77.077)" fill="#19141e" fill-rule="evenodd"/>
        <path id="Path_166" data-name="Path 166" d="M38.355,69.256V46.5" transform="translate(-25.255 -36.083)" fill="none" stroke="#19141e" stroke-width="7"/>
      </g>
      <g id="_4-2" data-name="4" transform="translate(0 59.183)">
        <path id="Path_193" data-name="Path 193" d="M273.838,178.627l15.312,33.065" transform="translate(-205.923 -140.16)" fill="none" stroke="#19141e" stroke-linecap="round" stroke-width="10"/>
        <path id="Path_194" data-name="Path 194" d="M186.2,181.563h11.875V172H186.2Z" transform="translate(-148.218 -135.796)" fill="#19141e" fill-rule="evenodd"/>
        <path id="Path_195" data-name="Path 195" d="M105.318,215.963l3.285-36.048" transform="translate(-94.96 -141.008)" fill="none" stroke="#19141e" stroke-linecap="round" stroke-width="10"/>
        <path id="Path_196" data-name="Path 196" d="M98.117,102.625l-.236.466a8.484,8.484,0,0,1-11.367,3.731l-.7-.354A8.485,8.485,0,0,1,82.084,95.1L93.966,71.609A8.491,8.491,0,0,1,102.249,67a13.431,13.431,0,0,1,5.1-1h23.12a13.483,13.483,0,0,1,8.582,3.083,8.486,8.486,0,0,1,6.436,6.351l5.942,25.646A8.485,8.485,0,0,1,145.1,111.23l-.764.177a8.488,8.488,0,0,1-9.978-5.7,13.444,13.444,0,0,1-3.887.571h-23.12A13.5,13.5,0,0,1,98.117,102.625Zm63.264,49.033-3.822,3.412c-.175-.2-.451-.526-.795-.973a25.891,25.891,0,0,1-1.65-2.413,16.085,16.085,0,0,1-2.506-7.108,8.831,8.831,0,0,1,3.8-8.054c2.8-2.042,5.715-2.218,8.211-.61a12.505,12.505,0,0,1,4.28,5.5,28.459,28.459,0,0,1,1.426,3.843c.134.455.248.878.343,1.261.059.237.1.414.122.521l-5.012,1.063c-.011-.052-.039-.173-.083-.353-.078-.312-.172-.663-.284-1.043a23.41,23.41,0,0,0-1.165-3.148,8.061,8.061,0,0,0-2.4-3.333c-.66-.425-1.281-.388-2.417.441a3.739,3.739,0,0,0-1.712,3.567,11.344,11.344,0,0,0,1.781,4.81,20.881,20.881,0,0,0,1.323,1.935c.156.2.3.381.426.532C161.321,151.589,161.366,151.642,161.381,151.659Zm-86.365,2.66,5.114-.3c0-.013,0-.058-.005-.134a19.457,19.457,0,0,1,.053-2.041,17.468,17.468,0,0,1,.54-3.272c.828-3.022,2.254-4.482,4.712-4.385,2.118.083,2.644,1.064,2.261,3.818a18.554,18.554,0,0,1-.891,3.49c-.225.644-.468,1.254-.709,1.807-.083.191-.16.36-.227.505-.038.081-.063.132-.072.151l4.589,2.278c.089-.179.231-.482.407-.888.289-.664.578-1.39.847-2.161a23.476,23.476,0,0,0,1.13-4.477,9.812,9.812,0,0,0-.782-6.095c-1.181-2.2-3.391-3.433-6.351-3.55-5.257-.207-8.465,3.077-9.855,8.151A23.459,23.459,0,0,0,75,154.047C75.009,154.169,75.013,154.261,75.016,154.319Z" transform="translate(-74.992 -65.999)" fill="#6ca1ff" fill-rule="evenodd"/>
        <path id="Path_197" data-name="Path 197" d="M196.455,116.648H207.8a4.11,4.11,0,0,0,4.1-4.1v-6.656a4.11,4.11,0,0,0-4.1-4.1h-11.35a4.11,4.11,0,0,0-4.1,4.1v6.656a4.11,4.11,0,0,0,4.1,4.1" transform="translate(-152.271 -89.569)" fill="#19141e" fill-rule="evenodd"/>
        <path id="Path_198" data-name="Path 198" d="M93.936,73.636A8.484,8.484,0,0,1,105.3,69.906l.7.354a8.485,8.485,0,0,1,3.731,11.368L97.851,105.118a8.484,8.484,0,0,1-11.367,3.731l-.7-.354a8.485,8.485,0,0,1-3.73-11.368Zm47.288,34.686a3.354,3.354,0,0,1-1.5-3.679,13.594,13.594,0,0,1-5.3,3.034,8.489,8.489,0,0,0,9.978,5.7l.764-.177a8.485,8.485,0,0,0,6.332-10.151L145.561,77.4a8.486,8.486,0,0,0-6.436-6.351A13.547,13.547,0,0,1,144.1,81.524V94.691a13.458,13.458,0,0,1-2.394,7.669,3.353,3.353,0,1,1-.481,5.962Zm16.281,48.541,3.822-3.412c-.016-.017-.061-.069-.131-.154-.127-.151-.27-.33-.426-.532a20.875,20.875,0,0,1-1.323-1.934,11.339,11.339,0,0,1-1.781-4.81,3.739,3.739,0,0,1,1.712-3.567c1.136-.829,1.757-.866,2.417-.441a8.061,8.061,0,0,1,2.4,3.333,23.472,23.472,0,0,1,1.164,3.148c.112.38.207.731.284,1.043.044.18.072.3.083.352l5.012-1.063c-.023-.107-.063-.284-.122-.521-.095-.383-.209-.807-.343-1.261a28.486,28.486,0,0,0-1.426-3.843,12.5,12.5,0,0,0-4.28-5.5c-2.5-1.608-5.413-1.432-8.211.61a8.83,8.83,0,0,0-3.8,8.054,16.079,16.079,0,0,0,2.506,7.108,25.911,25.911,0,0,0,1.65,2.413C157.055,156.337,157.331,156.667,157.505,156.863ZM91.288,97.19a3.353,3.353,0,1,1-4.179,2.24A3.353,3.353,0,0,1,91.288,97.19Zm13.39-17.864a3.353,3.353,0,1,0-4.179,2.24A3.353,3.353,0,0,0,104.678,79.325Zm-29.654,77,5.114-.3c0-.013,0-.058-.005-.134a19.463,19.463,0,0,1,.053-2.041,17.472,17.472,0,0,1,.54-3.272c.828-3.022,2.254-4.482,4.712-4.385,2.118.084,2.645,1.064,2.261,3.819a18.535,18.535,0,0,1-.891,3.49c-.225.644-.467,1.253-.708,1.807-.083.191-.16.36-.227.5-.038.081-.063.133-.072.151l4.589,2.278c.089-.179.231-.482.407-.888.289-.664.578-1.39.847-2.161a23.489,23.489,0,0,0,1.13-4.476,9.81,9.81,0,0,0-.782-6.095c-1.181-2.2-3.391-3.433-6.351-3.549-5.257-.207-8.464,3.077-9.854,8.151a23.462,23.462,0,0,0-.772,6.831C75.016,156.178,75.02,156.27,75.024,156.328Z" transform="translate(-74.997 -67.975)" fill-rule="evenodd" opacity="0.399"/>
        <path id="Path_199" data-name="Path 199" d="M116.563,112.918a3.353,3.353,0,1,1-2.24-4.179A3.353,3.353,0,0,1,116.563,112.918Zm11.15-22.044a3.353,3.353,0,1,1-2.24-4.179A3.353,3.353,0,0,1,127.714,90.874Zm41.164,27.917a3.353,3.353,0,1,1-1.107-4.611A3.353,3.353,0,0,1,168.878,118.791Z" transform="translate(-98.043 -79.531)" fill-rule="evenodd" opacity="0.602"/>
      </g>
      <g id="_4-3" data-name="4" transform="translate(5.603 104.892)">
        <path id="Path_223" data-name="Path 223" d="M252.539,271.488l-4.474,41.2" transform="translate(-194.762 -183.886)" fill="none" stroke="#19141e" stroke-linecap="round" stroke-width="18"/>
        <path id="Path_224" data-name="Path 224" d="M150.078,271.488l-4.474,41.2" transform="translate(-127.296 -183.886)" fill="none" stroke="#19141e" stroke-linecap="round" stroke-width="18"/>
        <path id="Path_225" data-name="Path 225" d="M242.551,55.225l6.191,68.259" transform="translate(-191.131 -41.486)" fill="none" stroke="#19141e" stroke-linecap="round" stroke-width="4"/>
        <path id="Path_226" data-name="Path 226" d="M148.341,46.177a3.928,3.928,0,1,1,7.855.039l-.342,68.086a3.928,3.928,0,1,1-7.855-.04Z" transform="translate(-128.873 -32.955)" fill="#19141e"/>
        <path id="Path_227" data-name="Path 227" d="M107.038,25.942a10.826,10.826,0,0,0,4.4,8.659l.032-6.38a3.928,3.928,0,1,1,7.855.039l-.042,8.464,23.09-.077A10.824,10.824,0,0,0,142.3,15l-24.472.082A10.855,10.855,0,0,0,107.038,25.942ZM156.07,172.37l4.737-43.625a4.121,4.121,0,0,0-3.655-4.543l-17.5-1.9a4.123,4.123,0,0,0-4.546,3.655l-5,46.061-.851,7.819a13.829,13.829,0,0,0-9.337-7.463l4.737-43.625A4.121,4.121,0,0,0,121,124.2l-17.5-1.9a4.123,4.123,0,0,0-4.546,3.655l-5,46.061h0l-1.5,13.8L92,189.976H166.77v-4.16A13.808,13.808,0,0,0,156.07,172.37Zm-42.026-63.424a9.82,9.82,0,1,0-9.821-9.82A9.821,9.821,0,0,0,114.043,108.946Zm45.932-9.82a9.821,9.821,0,1,1-9.82-9.82A9.821,9.821,0,0,1,159.975,99.126Z" transform="translate(-92 -15)" fill="#6ca1ff" fill-rule="evenodd"/>
        <path id="Path_228" data-name="Path 228" d="M130.592,392.542a13.75,13.75,0,0,0-1.364-5.983l.851-7.819,5-46.06a4.123,4.123,0,0,1,4.546-3.655l17.5,1.9a4.121,4.121,0,0,1,3.655,4.543l-4.737,43.625a13.808,13.808,0,0,1,10.7,13.447v4.16H92l.451-4.16Z" transform="translate(-92 -221.755)" fill-rule="evenodd" opacity="0.397"/>
        <path id="Path_229" data-name="Path 229" d="M253.141,242.32a9.821,9.821,0,1,1-9.82-9.82,9.821,9.821,0,0,1,9.82,9.82" transform="translate(-185.171 -158.214)" fill-rule="evenodd" opacity="0.401"/>
        <path id="Path_230" data-name="Path 230" d="M124.676,350.837A2.837,2.837,0,1,1,121.839,348,2.836,2.836,0,0,1,124.676,350.837Zm-1,9.251a2.837,2.837,0,1,1-2.837-2.836A2.837,2.837,0,0,1,123.673,360.088Z" transform="translate(-109.12 -234.266)" fill-rule="evenodd" opacity="0.597"/>
        <path id="Path_231" data-name="Path 231" d="M114.464,478.732A3.732,3.732,0,1,1,110.732,475a3.732,3.732,0,0,1,3.732,3.732" transform="translate(-101.877 -317.889)" fill-rule="evenodd" opacity="0.396"/>
      </g>
    </g>
    <g id="Group_1913" data-name="Group 1913" transform="translate(1024.541 166.741)">
      <g id="_3" data-name="3" transform="translate(27.628)">
        <path id="Path_146" data-name="Path 146" d="M79.5,49.423s-6.1,4.037-6.776,11.022" transform="translate(-43.723 -45.08)" fill="none" stroke="#19141e" stroke-linecap="round" stroke-width="5"/>
        <path id="Path_147" data-name="Path 147" d="M35.422,70.715H53.906a7.319,7.319,0,0,0,7.3-7.3V58.5a7.319,7.319,0,0,0-7.3-7.3H7.3A7.319,7.319,0,0,0,0,58.5v4.92a7.319,7.319,0,0,0,7.3,7.3H24.81V85.353H35.422ZM32.674,40.684A3.684,3.684,0,1,0,36.358,37,3.684,3.684,0,0,0,32.674,40.684Z" transform="translate(0 -37)" fill="#6ca1ff" fill-rule="evenodd"/>
        <path id="Path_148" data-name="Path 148" d="M84.365,148.008H73.753V133.326H84.365Z" transform="translate(-48.943 -99.654)" fill-rule="evenodd" opacity="0.399"/>
        <path id="Path_149" data-name="Path 149" d="M84.365,143.15l-10.612-3.5v-6.5H84.365Z" transform="translate(-48.944 -99.545)" fill-rule="evenodd" opacity="0.4"/>
        <path id="Path_150" data-name="Path 150" d="M7.3,97.14h0a7.319,7.319,0,0,0,7.3-7.3V84.924A7.3,7.3,0,1,0,0,84.924v4.919a7.319,7.319,0,0,0,7.3,7.3" transform="translate(46.609 -63.425)" fill="#19141e" fill-rule="evenodd"/>
        <path id="Path_151" data-name="Path 151" d="M64.8,95.128a5.595,5.595,0,1,1-5.595-5.6,5.595,5.595,0,0,1,5.595,5.6" transform="translate(-22.343 -71.169)" fill="#fff" fill-rule="evenodd"/>
        <path id="Path_152" data-name="Path 152" d="M69.481,98.507a2.57,2.57,0,1,1-2.57-2.57,2.57,2.57,0,0,1,2.57,2.57" transform="translate(-30.769 -75.335)" fill="#19141e" fill-rule="evenodd"/>
        <path id="Path_153" data-name="Path 153" d="M142.855,95.128a5.6,5.6,0,1,1-5.6-5.6,5.595,5.595,0,0,1,5.6,5.6" transform="translate(-127.677 -71.169)" fill="#fff" fill-rule="evenodd"/>
        <path id="Path_154" data-name="Path 154" d="M147.532,98.507a2.57,2.57,0,1,1-2.57-2.57,2.57,2.57,0,0,1,2.57,2.57" transform="translate(-136.103 -75.335)" fill="#19141e" fill-rule="evenodd"/>
        <path id="Path_155" data-name="Path 155" d="M109.992,94.568l-5,3.8,5,3.872" transform="translate(-85.489 -74.444)" fill="#19141e" fill-rule="evenodd"/>
      </g>
      <g id="_3-2" data-name="3" transform="translate(0 48.353)">
        <path id="Path_178" data-name="Path 178" d="M78.14,350.973l7.367-7.989-10.68-13.726L62,340.383l4.624,9.766" transform="translate(23.261 -215.212)" fill="none" stroke="#19141e" stroke-width="4"/>
        <path id="Path_179" data-name="Path 179" d="M310.083,349.825l6.6-8.63-11.893-12.689-11.749,12.252,5.5,9.3" transform="translate(-288.682 -214.722)" fill="none" stroke="#19141e" stroke-width="4"/>
        <path id="Path_180" data-name="Path 180" d="M312.3,152.482l5.294-38.814" transform="translate(-296.319 -74.983)" fill="none" stroke="#19141e" stroke-linecap="round" stroke-width="24"/>
        <path id="Path_181" data-name="Path 181" d="M91.141,149.175,85.56,110.4" transform="translate(9.392 -72.858)" fill="none" stroke="#19141e" stroke-linecap="round" stroke-width="24"/>
        <path id="Path_182" data-name="Path 182" d="M213.323,116.244H228.4a4.066,4.066,0,0,0,4.066-4.066V97.106A4.066,4.066,0,0,0,228.4,93.04H213.323a4.066,4.066,0,0,0-4.066,4.066v15.072a4.066,4.066,0,0,0,4.066,4.066" transform="translate(-175.168 -61.565)" fill="#19141e" fill-rule="evenodd"/>
        <path id="Path_183" data-name="Path 183" d="M213.323,116.244H224.55a4.066,4.066,0,0,0,4.066-4.066V97.106a4.066,4.066,0,0,0-4.066-4.066H213.323a4.066,4.066,0,0,0-4.066,4.066v15.072a4.066,4.066,0,0,0,4.066,4.066" transform="translate(-171.323 -61.565)" fill="#405fd3" fill-rule="evenodd"/>
        <path id="Path_184" data-name="Path 184" d="M134.079,64.951c.106,0,.212,0,.318,0a12.686,12.686,0,1,0-4.265-24.636,36.635,36.635,0,0,0-63.166-1.532,12.687,12.687,0,1,0-5.1,24.659,36.63,36.63,0,0,0,72.214,1.506Zm22.1,35.029a9.36,9.36,0,0,0-8.638-10.031l-12.951-.966a9.36,9.36,0,0,0-10.031,8.638l-2.2,29.522a9.361,9.361,0,0,0,8.638,10.031l12.952.967a9.36,9.36,0,0,0,10.031-8.638ZM71.708,97.659a9.36,9.36,0,0,0-9.41-9.31l-12.988.069A9.361,9.361,0,0,0,40,97.828l.158,29.6a9.36,9.36,0,0,0,9.41,9.311l12.988-.069a9.36,9.36,0,0,0,9.31-9.41Z" transform="translate(-39.743 -15.008)" fill="#6ca1ff" fill-rule="evenodd"/>
        <path id="Path_185" data-name="Path 185" d="M194.179,12.25H166.21V3h27.969Z" transform="translate(-121.838 -3)" fill="#19141e" fill-rule="evenodd"/>
        <path id="Path_186" data-name="Path 186" d="M260.918,116.244a4.066,4.066,0,0,1-4.066-4.066V97.106a4.066,4.066,0,0,1,4.066-4.066h-3.845a4.066,4.066,0,0,0-4.066,4.066v15.072a4.066,4.066,0,0,0,4.066,4.066Z" transform="translate(-218.918 -61.565)" fill="#19141e" fill-rule="evenodd"/>
        <path id="Path_187" data-name="Path 187" d="M56.667,237.515l-1.568-.123h0Zm1.692-1.444.124-1.569h0Zm-4.017,30.975,1.568.124h0Zm1.445,1.692.123-1.568Zm1.692-1.445,1.568.123h0ZM59.8,237.762l1.568.123h0Zm-8.9-.739-1.568-.123h0Zm1.692-1.445.124-1.568h0Zm-4.017,30.976,1.568.123h0Zm1.445,1.692.123-1.568Zm1.692-1.445,1.568.123h0Zm2.325-29.531,1.568.123h0Zm1.059.122a3.146,3.146,0,0,1,3.383-2.889l-.247,3.137h0Zm-2.325,29.531L55.1,237.391l3.136.247-2.325,29.531Zm2.889,3.383a3.146,3.146,0,0,1-2.889-3.383l3.136.247h0Zm3.383-2.889a3.146,3.146,0,0,1-3.383,2.889l.247-3.136h0Zm2.325-29.531-2.325,29.531-3.136-.247,2.325-29.531ZM58.482,234.5a3.146,3.146,0,0,1,2.889,3.383l-3.136-.247h0Zm-9.147,2.4a3.146,3.146,0,0,1,3.383-2.889l-.247,3.136h0ZM47.009,266.43,49.335,236.9l3.136.247-2.325,29.531Zm2.889,3.383a3.146,3.146,0,0,1-2.889-3.383l3.136.247h0Zm3.383-2.889a3.146,3.146,0,0,1-3.383,2.889l.247-3.136h0Zm2.325-29.531-2.325,29.531-3.136-.247,2.325-29.531Zm-2.889-3.383a3.146,3.146,0,0,1,2.889,3.383l-3.136-.247h0Z" transform="translate(52.631 -153.251)" opacity="0.402"/>
        <path id="Path_188" data-name="Path 188" d="M213.366,116.2h11.227a4.066,4.066,0,0,0,4.066-4.066V97.066A4.066,4.066,0,0,0,224.593,93H213.366a4.066,4.066,0,0,0-4.066,4.066v15.072A4.066,4.066,0,0,0,213.366,116.2Zm9.306-12.768a2.946,2.946,0,1,1,2.946-2.946A2.946,2.946,0,0,1,222.672,103.436Zm-8.372,0a2.946,2.946,0,1,1,2.946-2.946A2.946,2.946,0,0,1,214.3,103.436Zm8.372,8.515A2.946,2.946,0,1,1,225.618,109,2.946,2.946,0,0,1,222.672,111.951Z" transform="translate(-171.381 -61.54)" fill-rule="evenodd" opacity="0.398"/>
        <path id="Path_189" data-name="Path 189" d="M90.371,85.686A12.685,12.685,0,1,1,77.686,73,12.685,12.685,0,0,1,90.371,85.686" transform="translate(17.349 -48.531)" fill-rule="evenodd" opacity="0.404"/>
        <path id="Path_190" data-name="Path 190" d="M313.707,222.31l.158,29.6a9.36,9.36,0,0,1-9.31,9.41l-12.988.069a9.36,9.36,0,0,1-9.41-9.311l-.158-29.6a9.361,9.361,0,0,1,9.31-9.41L304.3,213a9.36,9.36,0,0,1,9.41,9.31" transform="translate(-282 -139.592)" fill-rule="evenodd" opacity="0.399"/>
        <path id="Path_191" data-name="Path 191" d="M311.769,70.172a12.687,12.687,0,1,0-5.1,24.659,36.95,36.95,0,0,1-.389-5.362,36.453,36.453,0,0,1,5.491-19.3Z" transform="translate(-284.448 -46.254)" fill-rule="evenodd" opacity="0.398"/>
        <path id="Path_192" data-name="Path 192" d="M220.946,136.242a2.946,2.946,0,1,1,2.946-2.946,2.946,2.946,0,0,1-2.946,2.946" transform="translate(-169.655 -85.833)" fill-rule="evenodd" opacity="0.598"/>
      </g>
      <g id="_2" data-name="2" transform="translate(18.22 127.552)">
        <path id="Path_209" data-name="Path 209" d="M248.8,45.507l-6.337,69.861" transform="translate(-222.627 -37.639)" fill="none" stroke="#19141e" stroke-linecap="round" stroke-width="12"/>
        <path id="Path_210" data-name="Path 210" d="M253.052,263.411l2.635,80.309" transform="translate(-233.218 -179.373)" fill="none" stroke="#19141e" stroke-linecap="round" stroke-width="12"/>
        <path id="Path_211" data-name="Path 211" d="M169.41,44.051l.35,69.683" transform="translate(-118.053 -36.692)" fill="none" stroke="#19141e" stroke-linecap="round" stroke-width="12"/>
        <path id="Path_212" data-name="Path 212" d="M142.513,251.924l9.4,86.583" transform="translate(-90.806 -171.901)" fill="none" stroke="#19141e" stroke-linecap="round" stroke-width="12"/>
        <path id="Path_213" data-name="Path 213" d="M171.624,32.865H149.4a4.932,4.932,0,0,1,0-9.865h22.223a4.932,4.932,0,1,1,0,9.865Zm-20.939,68.563c0-4.674-2.915-8.477-6.548-8.6v0h-3.7c-3.718,0-6.731,3.852-6.731,8.6s3.014,8.6,6.731,8.6h3.7v0C147.77,109.9,150.685,106.1,150.685,101.427Zm39.594,94.462H162.368l23.5-11.294Zm-68.279,0h27.911L145.5,184.6ZM175.656,92.826c3.633.124,6.548,3.928,6.548,8.6s-2.915,8.477-6.548,8.6v0h-3.7c-3.718,0-6.731-3.853-6.731-8.6s3.014-8.6,6.732-8.6h3.7Z" transform="translate(-122 -23)" fill="#6ca1ff" fill-rule="evenodd"/>
        <path id="Path_214" data-name="Path 214" d="M155.433,239.806c3.633-.124,6.548-3.928,6.548-8.6s-2.915-8.477-6.548-8.6v0h-3.7c-3.718,0-6.732,3.852-6.732,8.6s3.014,8.6,6.731,8.6h3.7Zm4.23-8.6c0,2.782-1.507,5.037-3.366,5.037s-3.366-2.255-3.366-5.037,1.507-5.038,3.366-5.038S159.663,228.423,159.663,231.2Zm27.23,8.636c3.633-.124,6.548-3.927,6.548-8.6s-2.915-8.477-6.548-8.6v0h-3.7c-3.718,0-6.731,3.852-6.731,8.6s3.013,8.6,6.731,8.6h3.7v0Zm4.231-8.6c0,2.782-1.507,5.037-3.366,5.037s-3.366-2.255-3.366-5.037,1.507-5.038,3.366-5.038S191.124,228.458,191.124,231.24Z" transform="translate(-133.202 -152.828)" fill-rule="evenodd" opacity="0.403"/>
        <path id="Path_215" data-name="Path 215" d="M158.381,238.037c0,2.782-1.507,5.037-3.366,5.037s-3.365-2.255-3.365-5.037S153.157,233,155.016,233s3.366,2.255,3.366,5.037" transform="translate(-100.466 -159.592)" fill-rule="evenodd" opacity="0.603"/>
        <path id="Path_216" data-name="Path 216" d="M248.431,237.838c0,2.782-1.507,5.037-3.366,5.037s-3.366-2.255-3.366-5.037,1.507-5.038,3.366-5.038,3.366,2.255,3.366,5.038" transform="translate(-221.994 -159.462)" fill-rule="evenodd" opacity="0.604"/>
        <path id="Path_217" data-name="Path 217" d="M122,496.794h27.911L145.5,485.5Z" transform="translate(-81.632 -323.828)" fill-rule="evenodd" opacity="0.396"/>
        <path id="Path_218" data-name="Path 218" d="M237.483,496.794h27.911l-4.41-11.294Z" transform="translate(-237.483 -323.828)" fill-rule="evenodd" opacity="0.396"/>
      </g>
    </g>
  </g>
</svg>
